<svg viewBox="0 0 1046 400" xmlns="http://www.w3.org/2000/svg"><g><g><g><g><g><line x1="49.98400115966797" y1="378.6199998855591" x2="44.98400115966797" y2="378.6199998855591" style="visibility: inherit;" fill="rgb(0, 0, 0)" stroke="rgb(204, 204, 204)" stroke-width="1px"></line><line x1="49.98400115966797" y1="331.2924998998642" x2="44.98400115966797" y2="331.2924998998642" style="visibility: inherit;" fill="rgb(0, 0, 0)" stroke="rgb(204, 204, 204)" stroke-width="1px"></line><line x1="49.98400115966797" y1="283.9649999141693" x2="44.98400115966797" y2="283.9649999141693" style="visibility: inherit;" fill="rgb(0, 0, 0)" stroke="rgb(204, 204, 204)" stroke-width="1px"></line><line x1="49.98400115966797" y1="236.63749992847443" x2="44.98400115966797" y2="236.63749992847443" style="visibility: inherit;" fill="rgb(0, 0, 0)" stroke="rgb(204, 204, 204)" stroke-width="1px"></line><line x1="49.98400115966797" y1="189.30999994277954" x2="44.98400115966797" y2="189.30999994277954" style="visibility: inherit;" fill="rgb(0, 0, 0)" stroke="rgb(204, 204, 204)" stroke-width="1px"></line><line x1="49.98400115966797" y1="141.98249995708466" x2="44.98400115966797" y2="141.98249995708466" style="visibility: inherit;" fill="rgb(0, 0, 0)" stroke="rgb(204, 204, 204)" stroke-width="1px"></line><line x1="49.98400115966797" y1="94.65499997138977" x2="44.98400115966797" y2="94.65499997138977" style="visibility: inherit;" fill="rgb(0, 0, 0)" stroke="rgb(204, 204, 204)" stroke-width="1px"></line><line x1="49.98400115966797" y1="47.327499985694885" x2="44.98400115966797" y2="47.327499985694885" style="visibility: inherit;" fill="rgb(0, 0, 0)" stroke="rgb(204, 204, 204)" stroke-width="1px"></line><line x1="49.98400115966797" y1="0" x2="44.98400115966797" y2="0" style="visibility: inherit;" fill="rgb(0, 0, 0)" stroke="rgb(204, 204, 204)" stroke-width="1px"></line></g><g transform="translate(39.98400115966797, 0)"><text style="text-anchor: end; visibility: hidden; font-family: Roboto, sans-serif; font-size: 12px; font-weight: 200;" x="0" y="378.6199998855591" dx="0em" dy="0.3em" fill="rgb(50, 49, 63)" stroke="none" stroke-width="1px">0.83</text><text style="text-anchor: end; visibility: inherit; font-family: Roboto, sans-serif; font-size: 12px; font-weight: 200;" x="0" y="331.2924998998642" dx="0em" dy="0.3em" fill="rgb(50, 49, 63)" stroke="none" stroke-width="1px">0.84</text><text style="text-anchor: end; visibility: inherit; font-family: Roboto, sans-serif; font-size: 12px; font-weight: 200;" x="0" y="283.9649999141693" dx="0em" dy="0.3em" fill="rgb(50, 49, 63)" stroke="none" stroke-width="1px">0.85</text><text style="text-anchor: end; visibility: inherit; font-family: Roboto, sans-serif; font-size: 12px; font-weight: 200;" x="0" y="236.63749992847443" dx="0em" dy="0.3em" fill="rgb(50, 49, 63)" stroke="none" stroke-width="1px">0.86</text><text style="text-anchor: end; visibility: inherit; font-family: Roboto, sans-serif; font-size: 12px; font-weight: 200;" x="0" y="189.30999994277954" dx="0em" dy="0.3em" fill="rgb(50, 49, 63)" stroke="none" stroke-width="1px">0.87</text><text style="text-anchor: end; visibility: inherit; font-family: Roboto, sans-serif; font-size: 12px; font-weight: 200;" x="0" y="141.98249995708466" dx="0em" dy="0.3em" fill="rgb(50, 49, 63)" stroke="none" stroke-width="1px">0.88</text><text style="text-anchor: end; visibility: inherit; font-family: Roboto, sans-serif; font-size: 12px; font-weight: 200;" x="0" y="94.65499997138977" dx="0em" dy="0.3em" fill="rgb(50, 49, 63)" stroke="none" stroke-width="1px">0.89</text><text style="text-anchor: end; visibility: inherit; font-family: Roboto, sans-serif; font-size: 12px; font-weight: 200;" x="0" y="47.327499985694885" dx="0em" dy="0.3em" fill="rgb(50, 49, 63)" stroke="none" stroke-width="1px">0.9</text><text style="text-anchor: end; visibility: hidden; font-family: Roboto, sans-serif; font-size: 12px; font-weight: 200;" x="0" y="0" dx="0em" dy="0.3em" fill="rgb(50, 49, 63)" stroke="none" stroke-width="1px">0.91</text></g><line x1="49.98400115966797" y1="0" x2="49.98400115966797" y2="378.6199998855591" fill="rgb(0, 0, 0)" stroke="rgb(204, 204, 204)" stroke-width="1px"></line></g></g><g transform="translate(49, 0)" clip-path="url(#clip_0)"><clipPath id="clip_0"><rect width="996" height="378"></rect></clipPath><g><g><g><line x1="0" y1="0" x2="0" y2="378.6199998855591" fill="rgb(0, 0, 0)" stroke="rgb(60, 60, 60)" stroke-width="1px" opacity="0.25"></line><line x1="71.14399991716657" y1="0" x2="71.14399991716657" y2="378.6199998855591" fill="rgb(0, 0, 0)" stroke="rgb(60, 60, 60)" stroke-width="1px" opacity="0.25"></line><line x1="142.28799983433314" y1="0" x2="142.28799983433314" y2="378.6199998855591" fill="rgb(0, 0, 0)" stroke="rgb(60, 60, 60)" stroke-width="1px" opacity="0.25"></line><line x1="213.43199975149972" y1="0" x2="213.43199975149972" y2="378.6199998855591" fill="rgb(0, 0, 0)" stroke="rgb(60, 60, 60)" stroke-width="1px" opacity="0.25"></line><line x1="284.57599966866627" y1="0" x2="284.57599966866627" y2="378.6199998855591" fill="rgb(0, 0, 0)" stroke="rgb(60, 60, 60)" stroke-width="1px" opacity="0.25"></line><line x1="355.71999958583285" y1="0" x2="355.71999958583285" y2="378.6199998855591" fill="rgb(0, 0, 0)" stroke="rgb(60, 60, 60)" stroke-width="1px" opacity="0.25"></line><line x1="426.86399950299943" y1="0" x2="426.86399950299943" y2="378.6199998855591" fill="rgb(0, 0, 0)" stroke="rgb(60, 60, 60)" stroke-width="1px" opacity="0.25"></line><line x1="498.007999420166" y1="0" x2="498.007999420166" y2="378.6199998855591" fill="rgb(0, 0, 0)" stroke="rgb(60, 60, 60)" stroke-width="1px" opacity="0.25"></line><line x1="569.1519993373325" y1="0" x2="569.1519993373325" y2="378.6199998855591" fill="rgb(0, 0, 0)" stroke="rgb(60, 60, 60)" stroke-width="1px" opacity="0.25"></line><line x1="640.2959992544992" y1="0" x2="640.2959992544992" y2="378.6199998855591" fill="rgb(0, 0, 0)" stroke="rgb(60, 60, 60)" stroke-width="1px" opacity="0.25"></line><line x1="711.4399991716657" y1="0" x2="711.4399991716657" y2="378.6199998855591" fill="rgb(0, 0, 0)" stroke="rgb(60, 60, 60)" stroke-width="1px" opacity="0.25"></line><line x1="782.5839990888323" y1="0" x2="782.5839990888323" y2="378.6199998855591" fill="rgb(0, 0, 0)" stroke="rgb(60, 60, 60)" stroke-width="1px" opacity="0.25"></line><line x1="853.7279990059989" y1="0" x2="853.7279990059989" y2="378.6199998855591" fill="rgb(0, 0, 0)" stroke="rgb(60, 60, 60)" stroke-width="1px" opacity="0.25"></line><line x1="924.8719989231655" y1="0" x2="924.8719989231655" y2="378.6199998855591" fill="rgb(0, 0, 0)" stroke="rgb(60, 60, 60)" stroke-width="1px" opacity="0.25"></line><line x1="996.015998840332" y1="0" x2="996.015998840332" y2="378.6199998855591" fill="rgb(0, 0, 0)" stroke="rgb(60, 60, 60)" stroke-width="1px" opacity="0.25"></line></g><g><line x1="0" y1="378.6199998855591" x2="996.015998840332" y2="378.6199998855591" fill="rgb(0, 0, 0)" stroke="rgb(60, 60, 60)" stroke-width="1px" opacity="0.25"></line><line x1="0" y1="331.2924998998642" x2="996.015998840332" y2="331.2924998998642" fill="rgb(0, 0, 0)" stroke="rgb(60, 60, 60)" stroke-width="1px" opacity="0.25"></line><line x1="0" y1="283.9649999141693" x2="996.015998840332" y2="283.9649999141693" fill="rgb(0, 0, 0)" stroke="rgb(60, 60, 60)" stroke-width="1px" opacity="0.25"></line><line x1="0" y1="236.63749992847443" x2="996.015998840332" y2="236.63749992847443" fill="rgb(0, 0, 0)" stroke="rgb(60, 60, 60)" stroke-width="1px" opacity="0.25"></line><line x1="0" y1="189.30999994277954" x2="996.015998840332" y2="189.30999994277954" fill="rgb(0, 0, 0)" stroke="rgb(60, 60, 60)" stroke-width="1px" opacity="0.25"></line><line x1="0" y1="141.98249995708466" x2="996.015998840332" y2="141.98249995708466" fill="rgb(0, 0, 0)" stroke="rgb(60, 60, 60)" stroke-width="1px" opacity="0.25"></line><line x1="0" y1="94.65499997138977" x2="996.015998840332" y2="94.65499997138977" fill="rgb(0, 0, 0)" stroke="rgb(60, 60, 60)" stroke-width="1px" opacity="0.25"></line><line x1="0" y1="47.327499985694885" x2="996.015998840332" y2="47.327499985694885" fill="rgb(0, 0, 0)" stroke="rgb(60, 60, 60)" stroke-width="1px" opacity="0.25"></line><line x1="0" y1="0" x2="996.015998840332" y2="0" fill="rgb(0, 0, 0)" stroke="rgb(60, 60, 60)" stroke-width="1px" opacity="0.25"></line></g></g></g><g><g><line x1="0" y1="4306.802498698231" x2="996.015998840332" y2="4306.802498698231" fill="rgb(0, 0, 0)" stroke="rgb(153, 153, 153)" stroke-width="1.5px"></line></g></g><g><g><line x1="71.14399991716657" y1="0" x2="71.14399991716657" y2="378.6199998855591" fill="rgb(0, 0, 0)" stroke="rgb(153, 153, 153)" stroke-width="1.5px"></line></g></g><g><g><g><g><g><path style="fill: none;" stroke="rgb(0, 119, 187)" stroke-width="2px" d="M71.14399991716657,454.8218172510608L106.71599987574986,241.71258326555864L142.28799983433314,186.2797248897175L177.85999979291643,149.3242979099017L213.43199975149972,145.6288680494731L249.003999710083,114.83267889962666L284.57599966866627,100.05039527014735L320.1479996272496,101.2822992549177L355.71999958583285,100.05039527014735L391.29199954441617,95.1230614249484L426.86399950299943,93.89115744017809L462.43599946158275,95.1230614249484L498.007999420166,93.89115744017809L533.5799993787493,90.1957275797495L569.1519993373325,80.34105988935161L604.7239992959159,85.26839373455056L640.2959992544992,81.57268178023949L675.8679992130825,80.34105988935161L711.4399991716657,82.80458576500985L747.011999130249,82.80458576500985L782.5839990888323,81.57268178023949L818.1559990474155,81.57268178023949L853.7279990059989,82.80458576500985L889.2999989645822,80.34105988935161L924.8719989231655,80.34105988935161" fill="none"></path></g><g><path style="fill: none;" stroke="rgb(204, 51, 17)" stroke-width="2px" d="M71.14399991716657,464.67676703534113L106.71599987574986,252.79943703460935L142.28799983433314,217.07591403956397L177.85999979291643,135.77391826519278L213.43199975149972,132.0784884047642L249.003999710083,109.90534505442771L284.57599966866627,117.29620477528489L320.1479996272496,107.441537084887L355.71999958583285,100.05039527014735L391.29199954441617,91.42763156451986L426.86399950299943,103.74610722445841L462.43599946158275,96.35496540971876L498.007999420166,85.26839373455056L533.5799993787493,87.73191961020879L569.1519993373325,91.42763156451986L604.7239992959159,86.50029771932091L640.2959992544992,87.73191961020879L675.8679992130825,82.80458576500985L711.4399991716657,87.73191961020879L747.011999130249,84.0364897497802L782.5839990888323,84.0364897497802L818.1559990474155,80.34105988935161L853.7279990059989,90.1957275797495L889.2999989645822,87.73191961020879L924.8719989231655,86.50029771932091" fill="none"></path></g><g><path style="fill: none;" stroke="rgb(255, 112, 67)" stroke-width="2px" d="M71.14399991716657,389.53400909093926L106.71599987574986,294.68191576574156L142.28799983433314,202.29363041008466L177.85999979291643,156.71543972464136L213.43199975149972,127.15115455956526L249.003999710083,116.06458288439701L284.57599966866627,112.36887093008595L320.1479996272496,97.58686939448911L355.71999958583285,93.89115744017809L391.29199954441617,95.1230614249484L426.86399950299943,87.73191961020879L462.43599946158275,81.57268178023949L498.007999420166,82.80458576500985L533.5799993787493,84.0364897497802L569.1519993373325,84.0364897497802L604.7239992959159,86.50029771932091L640.2959992544992,85.26839373455056L675.8679992130825,84.0364897497802L711.4399991716657,86.50029771932091L747.011999130249,81.57268178023949L782.5839990888323,84.0364897497802L818.1559990474155,88.96382359497915L853.7279990059989,88.96382359497915L889.2999989645822,88.96382359497915L924.8719989231655,88.96382359497915" fill="none"></path></g><g><path style="fill: none;" stroke="rgb(238, 51, 119)" stroke-width="2px" d="M71.14399991716657,383.37505335485247L106.71599987574986,292.21838989008336L142.28799983433314,165.3382034302689L177.85999979291643,165.3382034302689L213.43199975149972,149.3242979099017L249.003999710083,117.29620477528489L284.57599966866627,113.6007749148563L320.1479996272496,109.90534505442771L355.71999958583285,111.13696694531559L391.29199954441617,101.2822992549177L426.86399950299943,97.58686939448911L462.43599946158275,86.50029771932091L498.007999420166,81.57268178023949L533.5799993787493,88.96382359497915L569.1519993373325,85.26839373455056L604.7239992959159,85.26839373455056L640.2959992544992,84.0364897497802L675.8679992130825,85.26839373455056L711.4399991716657,82.80458576500985L747.011999130249,86.50029771932091L782.5839990888323,84.0364897497802L818.1559990474155,80.34105988935161L853.7279990059989,80.34105988935161L889.2999989645822,81.57268178023949L924.8719989231655,80.34105988935161" fill="none"></path></g><g><path style="fill: none;" stroke="rgb(51, 187, 238)" stroke-width="2px" d="M71.14399991716657,420.3301982407857L106.71599987574986,251.567533049839L142.28799983433314,213.3802020852529L177.85999979291643,156.71543972464136L213.43199975149972,159.1789656002996L249.003999710083,141.93315609516208L284.57599966866627,102.51420323968806L320.1479996272496,102.51420323968806L355.71999958583285,98.81877337925947L391.29199954441617,86.50029771932091L426.86399950299943,86.50029771932091L462.43599946158275,72.94991807461196L498.007999420166,75.41344395027019L533.5799993787493,68.02258422941301L569.1519993373325,69.25448821418337L604.7239992959159,63.09525038421407L640.2959992544992,66.79068024464266L675.8679992130825,64.32687227510195L711.4399991716657,68.02258422941301L747.011999130249,69.25448821418337L782.5839990888323,64.32687227510195L818.1559990474155,65.5587762598723L853.7279990059989,65.5587762598723L889.2999989645822,65.5587762598723L924.8719989231655,66.79068024464266" fill="none"></path></g><g><path style="fill: none;" stroke="rgb(0, 153, 136)" stroke-width="2px" d="M71.14399991716657,395.69324692090856L106.71599987574986,215.8440100547936L142.28799983433314,187.51162887448785L177.85999979291643,143.1650600799324L213.43199975149972,151.7881058794424L249.003999710083,134.54201428042242L284.57599966866627,113.6007749148563L320.1479996272496,90.1957275797495L355.71999958583285,102.51420323968806L391.29199954441617,87.73191961020879L426.86399950299943,90.1957275797495L462.43599946158275,92.65953554929021L498.007999420166,84.0364897497802L533.5799993787493,86.50029771932091L569.1519993373325,87.73191961020879L604.7239992959159,88.96382359497915L640.2959992544992,85.26839373455056L675.8679992130825,84.0364897497802L711.4399991716657,82.80458576500985L747.011999130249,84.0364897497802L782.5839990888323,77.8772519198109L818.1559990474155,77.8772519198109L853.7279990059989,80.34105988935161L889.2999989645822,82.80458576500985L924.8719989231655,82.80458576500985" fill="none"></path></g></g></g></g></g></g><g transform="translate(49, 378)" clip-path="url(#clip_1)"><clipPath id="clip_1"><rect width="996" height="21"></rect></clipPath><g><g><line x1="0" y1="0" x2="0" y2="5" style="visibility: inherit;" fill="rgb(0, 0, 0)" stroke="rgb(204, 204, 204)" stroke-width="1px"></line><line x1="71.14399991716657" y1="0" x2="71.14399991716657" y2="5" style="visibility: inherit;" fill="rgb(0, 0, 0)" stroke="rgb(204, 204, 204)" stroke-width="1px"></line><line x1="142.28799983433314" y1="0" x2="142.28799983433314" y2="5" style="visibility: inherit;" fill="rgb(0, 0, 0)" stroke="rgb(204, 204, 204)" stroke-width="1px"></line><line x1="213.43199975149972" y1="0" x2="213.43199975149972" y2="5" style="visibility: inherit;" fill="rgb(0, 0, 0)" stroke="rgb(204, 204, 204)" stroke-width="1px"></line><line x1="284.57599966866627" y1="0" x2="284.57599966866627" y2="5" style="visibility: inherit;" fill="rgb(0, 0, 0)" stroke="rgb(204, 204, 204)" stroke-width="1px"></line><line x1="355.71999958583285" y1="0" x2="355.71999958583285" y2="5" style="visibility: inherit;" fill="rgb(0, 0, 0)" stroke="rgb(204, 204, 204)" stroke-width="1px"></line><line x1="426.86399950299943" y1="0" x2="426.86399950299943" y2="5" style="visibility: inherit;" fill="rgb(0, 0, 0)" stroke="rgb(204, 204, 204)" stroke-width="1px"></line><line x1="498.007999420166" y1="0" x2="498.007999420166" y2="5" style="visibility: inherit;" fill="rgb(0, 0, 0)" stroke="rgb(204, 204, 204)" stroke-width="1px"></line><line x1="569.1519993373325" y1="0" x2="569.1519993373325" y2="5" style="visibility: inherit;" fill="rgb(0, 0, 0)" stroke="rgb(204, 204, 204)" stroke-width="1px"></line><line x1="640.2959992544992" y1="0" x2="640.2959992544992" y2="5" style="visibility: inherit;" fill="rgb(0, 0, 0)" stroke="rgb(204, 204, 204)" stroke-width="1px"></line><line x1="711.4399991716657" y1="0" x2="711.4399991716657" y2="5" style="visibility: inherit;" fill="rgb(0, 0, 0)" stroke="rgb(204, 204, 204)" stroke-width="1px"></line><line x1="782.5839990888323" y1="0" x2="782.5839990888323" y2="5" style="visibility: inherit;" fill="rgb(0, 0, 0)" stroke="rgb(204, 204, 204)" stroke-width="1px"></line><line x1="853.7279990059989" y1="0" x2="853.7279990059989" y2="5" style="visibility: inherit;" fill="rgb(0, 0, 0)" stroke="rgb(204, 204, 204)" stroke-width="1px"></line><line x1="924.8719989231655" y1="0" x2="924.8719989231655" y2="5" style="visibility: inherit;" fill="rgb(0, 0, 0)" stroke="rgb(204, 204, 204)" stroke-width="1px"></line><line x1="996.015998840332" y1="0" x2="996.015998840332" y2="5" style="visibility: inherit;" fill="rgb(0, 0, 0)" stroke="rgb(204, 204, 204)" stroke-width="1px"></line></g><g transform="translate(0, 8)"><text style="text-anchor: middle; visibility: hidden; font-family: Roboto, sans-serif; font-size: 12px; font-weight: 200;" x="0" y="0" dx="0em" dy="0.95em" fill="rgb(50, 49, 63)" stroke="none" stroke-width="1px">-2</text><text style="text-anchor: middle; visibility: hidden; font-family: Roboto, sans-serif; font-size: 12px; font-weight: 200;" x="71.14399991716657" y="0" dx="0em" dy="0.95em" fill="rgb(50, 49, 63)" stroke="none" stroke-width="1px">0</text><text style="text-anchor: middle; visibility: hidden; font-family: Roboto, sans-serif; font-size: 12px; font-weight: 200;" x="142.28799983433314" y="0" dx="0em" dy="0.95em" fill="rgb(50, 49, 63)" stroke="none" stroke-width="1px">2</text><text style="text-anchor: middle; visibility: hidden; font-family: Roboto, sans-serif; font-size: 12px; font-weight: 200;" x="213.43199975149972" y="0" dx="0em" dy="0.95em" fill="rgb(50, 49, 63)" stroke="none" stroke-width="1px">4</text><text style="text-anchor: middle; visibility: hidden; font-family: Roboto, sans-serif; font-size: 12px; font-weight: 200;" x="284.57599966866627" y="0" dx="0em" dy="0.95em" fill="rgb(50, 49, 63)" stroke="none" stroke-width="1px">6</text><text style="text-anchor: middle; visibility: hidden; font-family: Roboto, sans-serif; font-size: 12px; font-weight: 200;" x="355.71999958583285" y="0" dx="0em" dy="0.95em" fill="rgb(50, 49, 63)" stroke="none" stroke-width="1px">8</text><text style="text-anchor: middle; visibility: hidden; font-family: Roboto, sans-serif; font-size: 12px; font-weight: 200;" x="426.86399950299943" y="0" dx="0em" dy="0.95em" fill="rgb(50, 49, 63)" stroke="none" stroke-width="1px">10</text><text style="text-anchor: middle; visibility: hidden; font-family: Roboto, sans-serif; font-size: 12px; font-weight: 200;" x="498.007999420166" y="0" dx="0em" dy="0.95em" fill="rgb(50, 49, 63)" stroke="none" stroke-width="1px">12</text><text style="text-anchor: middle; visibility: hidden; font-family: Roboto, sans-serif; font-size: 12px; font-weight: 200;" x="569.1519993373325" y="0" dx="0em" dy="0.95em" fill="rgb(50, 49, 63)" stroke="none" stroke-width="1px">14</text><text style="text-anchor: middle; visibility: hidden; font-family: Roboto, sans-serif; font-size: 12px; font-weight: 200;" x="640.2959992544992" y="0" dx="0em" dy="0.95em" fill="rgb(50, 49, 63)" stroke="none" stroke-width="1px">16</text><text style="text-anchor: middle; visibility: hidden; font-family: Roboto, sans-serif; font-size: 12px; font-weight: 200;" x="711.4399991716657" y="0" dx="0em" dy="0.95em" fill="rgb(50, 49, 63)" stroke="none" stroke-width="1px">18</text><text style="text-anchor: middle; visibility: hidden; font-family: Roboto, sans-serif; font-size: 12px; font-weight: 200;" x="782.5839990888323" y="0" dx="0em" dy="0.95em" fill="rgb(50, 49, 63)" stroke="none" stroke-width="1px">20</text><text style="text-anchor: middle; visibility: hidden; font-family: Roboto, sans-serif; font-size: 12px; font-weight: 200;" x="853.7279990059989" y="0" dx="0em" dy="0.95em" fill="rgb(50, 49, 63)" stroke="none" stroke-width="1px">22</text><text style="text-anchor: middle; visibility: hidden; font-family: Roboto, sans-serif; font-size: 12px; font-weight: 200;" x="924.8719989231655" y="0" dx="0em" dy="0.95em" fill="rgb(50, 49, 63)" stroke="none" stroke-width="1px">24</text><text style="text-anchor: middle; visibility: hidden; font-family: Roboto, sans-serif; font-size: 12px; font-weight: 200;" x="996.015998840332" y="0" dx="0em" dy="0.95em" fill="rgb(50, 49, 63)" stroke="none" stroke-width="1px">26</text></g><line x1="0" y1="0" x2="996.015998840332" y2="0" fill="rgb(0, 0, 0)" stroke="rgb(204, 204, 204)" stroke-width="1px"></line></g></g></g></g></svg>