<svg viewBox="0 0 1046 400" xmlns="http://www.w3.org/2000/svg"><g><g><g><g><g><line x1="49.98400115966797" y1="378.6199998855591" x2="44.98400115966797" y2="378.6199998855591" style="visibility: inherit;" fill="rgb(0, 0, 0)" stroke="rgb(204, 204, 204)" stroke-width="1px"></line><line x1="49.98400115966797" y1="347.0683332284292" x2="44.98400115966797" y2="347.0683332284292" style="visibility: inherit;" fill="rgb(0, 0, 0)" stroke="rgb(204, 204, 204)" stroke-width="1px"></line><line x1="49.98400115966797" y1="315.5166665712992" x2="44.98400115966797" y2="315.5166665712992" style="visibility: inherit;" fill="rgb(0, 0, 0)" stroke="rgb(204, 204, 204)" stroke-width="1px"></line><line x1="49.98400115966797" y1="283.96499991416925" x2="44.98400115966797" y2="283.96499991416925" style="visibility: inherit;" fill="rgb(0, 0, 0)" stroke="rgb(204, 204, 204)" stroke-width="1px"></line><line x1="49.98400115966797" y1="252.41333325703943" x2="44.98400115966797" y2="252.41333325703943" style="visibility: inherit;" fill="rgb(0, 0, 0)" stroke="rgb(204, 204, 204)" stroke-width="1px"></line><line x1="49.98400115966797" y1="220.86166659990948" x2="44.98400115966797" y2="220.86166659990948" style="visibility: inherit;" fill="rgb(0, 0, 0)" stroke="rgb(204, 204, 204)" stroke-width="1px"></line><line x1="49.98400115966797" y1="189.3099999427795" x2="44.98400115966797" y2="189.3099999427795" style="visibility: inherit;" fill="rgb(0, 0, 0)" stroke="rgb(204, 204, 204)" stroke-width="1px"></line><line x1="49.98400115966797" y1="157.75833328564966" x2="44.98400115966797" y2="157.75833328564966" style="visibility: inherit;" fill="rgb(0, 0, 0)" stroke="rgb(204, 204, 204)" stroke-width="1px"></line><line x1="49.98400115966797" y1="126.20666662851971" x2="44.98400115966797" y2="126.20666662851971" style="visibility: inherit;" fill="rgb(0, 0, 0)" stroke="rgb(204, 204, 204)" stroke-width="1px"></line><line x1="49.98400115966797" y1="94.65499997138977" x2="44.98400115966797" y2="94.65499997138977" style="visibility: inherit;" fill="rgb(0, 0, 0)" stroke="rgb(204, 204, 204)" stroke-width="1px"></line><line x1="49.98400115966797" y1="63.10333331425992" x2="44.98400115966797" y2="63.10333331425992" style="visibility: inherit;" fill="rgb(0, 0, 0)" stroke="rgb(204, 204, 204)" stroke-width="1px"></line><line x1="49.98400115966797" y1="31.55166665712994" x2="44.98400115966797" y2="31.55166665712994" style="visibility: inherit;" fill="rgb(0, 0, 0)" stroke="rgb(204, 204, 204)" stroke-width="1px"></line><line x1="49.98400115966797" y1="0" x2="44.98400115966797" y2="0" style="visibility: inherit;" fill="rgb(0, 0, 0)" stroke="rgb(204, 204, 204)" stroke-width="1px"></line></g><g transform="translate(39.98400115966797, 0)"><text style="text-anchor: end; visibility: hidden; font-family: Roboto, sans-serif; font-size: 12px; font-weight: 200;" x="0" y="378.6199998855591" dx="0em" dy="0.3em" fill="rgb(50, 49, 63)" stroke="none" stroke-width="1px">0.22</text><text style="text-anchor: end; visibility: inherit; font-family: Roboto, sans-serif; font-size: 12px; font-weight: 200;" x="0" y="347.0683332284292" dx="0em" dy="0.3em" fill="rgb(50, 49, 63)" stroke="none" stroke-width="1px">0.24</text><text style="text-anchor: end; visibility: inherit; font-family: Roboto, sans-serif; font-size: 12px; font-weight: 200;" x="0" y="315.5166665712992" dx="0em" dy="0.3em" fill="rgb(50, 49, 63)" stroke="none" stroke-width="1px">0.26</text><text style="text-anchor: end; visibility: inherit; font-family: Roboto, sans-serif; font-size: 12px; font-weight: 200;" x="0" y="283.96499991416925" dx="0em" dy="0.3em" fill="rgb(50, 49, 63)" stroke="none" stroke-width="1px">0.28</text><text style="text-anchor: end; visibility: inherit; font-family: Roboto, sans-serif; font-size: 12px; font-weight: 200;" x="0" y="252.41333325703943" dx="0em" dy="0.3em" fill="rgb(50, 49, 63)" stroke="none" stroke-width="1px">0.3</text><text style="text-anchor: end; visibility: inherit; font-family: Roboto, sans-serif; font-size: 12px; font-weight: 200;" x="0" y="220.86166659990948" dx="0em" dy="0.3em" fill="rgb(50, 49, 63)" stroke="none" stroke-width="1px">0.32</text><text style="text-anchor: end; visibility: inherit; font-family: Roboto, sans-serif; font-size: 12px; font-weight: 200;" x="0" y="189.3099999427795" dx="0em" dy="0.3em" fill="rgb(50, 49, 63)" stroke="none" stroke-width="1px">0.34</text><text style="text-anchor: end; visibility: inherit; font-family: Roboto, sans-serif; font-size: 12px; font-weight: 200;" x="0" y="157.75833328564966" dx="0em" dy="0.3em" fill="rgb(50, 49, 63)" stroke="none" stroke-width="1px">0.36</text><text style="text-anchor: end; visibility: inherit; font-family: Roboto, sans-serif; font-size: 12px; font-weight: 200;" x="0" y="126.20666662851971" dx="0em" dy="0.3em" fill="rgb(50, 49, 63)" stroke="none" stroke-width="1px">0.38</text><text style="text-anchor: end; visibility: inherit; font-family: Roboto, sans-serif; font-size: 12px; font-weight: 200;" x="0" y="94.65499997138977" dx="0em" dy="0.3em" fill="rgb(50, 49, 63)" stroke="none" stroke-width="1px">0.4</text><text style="text-anchor: end; visibility: inherit; font-family: Roboto, sans-serif; font-size: 12px; font-weight: 200;" x="0" y="63.10333331425992" dx="0em" dy="0.3em" fill="rgb(50, 49, 63)" stroke="none" stroke-width="1px">0.42</text><text style="text-anchor: end; visibility: inherit; font-family: Roboto, sans-serif; font-size: 12px; font-weight: 200;" x="0" y="31.55166665712994" dx="0em" dy="0.3em" fill="rgb(50, 49, 63)" stroke="none" stroke-width="1px">0.44</text><text style="text-anchor: end; visibility: hidden; font-family: Roboto, sans-serif; font-size: 12px; font-weight: 200;" x="0" y="0" dx="0em" dy="0.3em" fill="rgb(50, 49, 63)" stroke="none" stroke-width="1px">0.46</text></g><line x1="49.98400115966797" y1="0" x2="49.98400115966797" y2="378.6199998855591" fill="rgb(0, 0, 0)" stroke="rgb(204, 204, 204)" stroke-width="1px"></line></g></g><g transform="translate(49, 0)" clip-path="url(#clip_0)"><clipPath id="clip_0"><rect width="996" height="378"></rect></clipPath><g><g><g><line x1="0" y1="0" x2="0" y2="378.6199998855591" fill="rgb(0, 0, 0)" stroke="rgb(60, 60, 60)" stroke-width="1px" opacity="0.25"></line><line x1="71.14399991716657" y1="0" x2="71.14399991716657" y2="378.6199998855591" fill="rgb(0, 0, 0)" stroke="rgb(60, 60, 60)" stroke-width="1px" opacity="0.25"></line><line x1="142.28799983433314" y1="0" x2="142.28799983433314" y2="378.6199998855591" fill="rgb(0, 0, 0)" stroke="rgb(60, 60, 60)" stroke-width="1px" opacity="0.25"></line><line x1="213.43199975149972" y1="0" x2="213.43199975149972" y2="378.6199998855591" fill="rgb(0, 0, 0)" stroke="rgb(60, 60, 60)" stroke-width="1px" opacity="0.25"></line><line x1="284.57599966866627" y1="0" x2="284.57599966866627" y2="378.6199998855591" fill="rgb(0, 0, 0)" stroke="rgb(60, 60, 60)" stroke-width="1px" opacity="0.25"></line><line x1="355.71999958583285" y1="0" x2="355.71999958583285" y2="378.6199998855591" fill="rgb(0, 0, 0)" stroke="rgb(60, 60, 60)" stroke-width="1px" opacity="0.25"></line><line x1="426.86399950299943" y1="0" x2="426.86399950299943" y2="378.6199998855591" fill="rgb(0, 0, 0)" stroke="rgb(60, 60, 60)" stroke-width="1px" opacity="0.25"></line><line x1="498.007999420166" y1="0" x2="498.007999420166" y2="378.6199998855591" fill="rgb(0, 0, 0)" stroke="rgb(60, 60, 60)" stroke-width="1px" opacity="0.25"></line><line x1="569.1519993373325" y1="0" x2="569.1519993373325" y2="378.6199998855591" fill="rgb(0, 0, 0)" stroke="rgb(60, 60, 60)" stroke-width="1px" opacity="0.25"></line><line x1="640.2959992544992" y1="0" x2="640.2959992544992" y2="378.6199998855591" fill="rgb(0, 0, 0)" stroke="rgb(60, 60, 60)" stroke-width="1px" opacity="0.25"></line><line x1="711.4399991716657" y1="0" x2="711.4399991716657" y2="378.6199998855591" fill="rgb(0, 0, 0)" stroke="rgb(60, 60, 60)" stroke-width="1px" opacity="0.25"></line><line x1="782.5839990888323" y1="0" x2="782.5839990888323" y2="378.6199998855591" fill="rgb(0, 0, 0)" stroke="rgb(60, 60, 60)" stroke-width="1px" opacity="0.25"></line><line x1="853.7279990059989" y1="0" x2="853.7279990059989" y2="378.6199998855591" fill="rgb(0, 0, 0)" stroke="rgb(60, 60, 60)" stroke-width="1px" opacity="0.25"></line><line x1="924.8719989231655" y1="0" x2="924.8719989231655" y2="378.6199998855591" fill="rgb(0, 0, 0)" stroke="rgb(60, 60, 60)" stroke-width="1px" opacity="0.25"></line><line x1="996.015998840332" y1="0" x2="996.015998840332" y2="378.6199998855591" fill="rgb(0, 0, 0)" stroke="rgb(60, 60, 60)" stroke-width="1px" opacity="0.25"></line></g><g><line x1="0" y1="378.6199998855591" x2="996.015998840332" y2="378.6199998855591" fill="rgb(0, 0, 0)" stroke="rgb(60, 60, 60)" stroke-width="1px" opacity="0.25"></line><line x1="0" y1="347.0683332284292" x2="996.015998840332" y2="347.0683332284292" fill="rgb(0, 0, 0)" stroke="rgb(60, 60, 60)" stroke-width="1px" opacity="0.25"></line><line x1="0" y1="315.5166665712992" x2="996.015998840332" y2="315.5166665712992" fill="rgb(0, 0, 0)" stroke="rgb(60, 60, 60)" stroke-width="1px" opacity="0.25"></line><line x1="0" y1="283.96499991416925" x2="996.015998840332" y2="283.96499991416925" fill="rgb(0, 0, 0)" stroke="rgb(60, 60, 60)" stroke-width="1px" opacity="0.25"></line><line x1="0" y1="252.41333325703943" x2="996.015998840332" y2="252.41333325703943" fill="rgb(0, 0, 0)" stroke="rgb(60, 60, 60)" stroke-width="1px" opacity="0.25"></line><line x1="0" y1="220.86166659990948" x2="996.015998840332" y2="220.86166659990948" fill="rgb(0, 0, 0)" stroke="rgb(60, 60, 60)" stroke-width="1px" opacity="0.25"></line><line x1="0" y1="189.3099999427795" x2="996.015998840332" y2="189.3099999427795" fill="rgb(0, 0, 0)" stroke="rgb(60, 60, 60)" stroke-width="1px" opacity="0.25"></line><line x1="0" y1="157.75833328564966" x2="996.015998840332" y2="157.75833328564966" fill="rgb(0, 0, 0)" stroke="rgb(60, 60, 60)" stroke-width="1px" opacity="0.25"></line><line x1="0" y1="126.20666662851971" x2="996.015998840332" y2="126.20666662851971" fill="rgb(0, 0, 0)" stroke="rgb(60, 60, 60)" stroke-width="1px" opacity="0.25"></line><line x1="0" y1="94.65499997138977" x2="996.015998840332" y2="94.65499997138977" fill="rgb(0, 0, 0)" stroke="rgb(60, 60, 60)" stroke-width="1px" opacity="0.25"></line><line x1="0" y1="63.10333331425992" x2="996.015998840332" y2="63.10333331425992" fill="rgb(0, 0, 0)" stroke="rgb(60, 60, 60)" stroke-width="1px" opacity="0.25"></line><line x1="0" y1="31.55166665712994" x2="996.015998840332" y2="31.55166665712994" fill="rgb(0, 0, 0)" stroke="rgb(60, 60, 60)" stroke-width="1px" opacity="0.25"></line><line x1="0" y1="0" x2="996.015998840332" y2="0" fill="rgb(0, 0, 0)" stroke="rgb(60, 60, 60)" stroke-width="1px" opacity="0.25"></line></g></g></g><g><g><line x1="0" y1="725.6883331139882" x2="996.015998840332" y2="725.6883331139882" fill="rgb(0, 0, 0)" stroke="rgb(153, 153, 153)" stroke-width="1.5px"></line></g></g><g><g><line x1="71.14399991716657" y1="0" x2="71.14399991716657" y2="378.6199998855591" fill="rgb(0, 0, 0)" stroke="rgb(153, 153, 153)" stroke-width="1.5px"></line></g></g><g><g><g><g><g><path style="fill: none;" stroke="rgb(0, 119, 187)" stroke-width="2px" d="M71.14399991716657,-66.299551034001L106.71599987574986,170.62837394961133L142.28799983433314,203.8696118258139L177.85999979291643,255.00039744696306L213.43199975149972,262.3387877056798L249.003999710083,288.09372409745436L284.57599966866627,294.74817773810935L320.1479996272496,287.91266684055216L355.71999958583285,297.28180394356275L391.29199954441617,304.46861575609597L426.86399950299943,311.9118509077994L462.43599946158275,305.1394350086226L498.007999420166,309.36002964692636L533.5799993787493,309.41409764106754L569.1519993373325,307.6943122865558L604.7239992959159,310.3932925227869L640.2959992544992,309.5475280474784L675.8679992130825,309.40229671365057L711.4399991716657,309.86662324420524L747.011999130249,309.73300477520604L782.5839990888323,309.7141985163743L818.1559990474155,309.9134978443432L853.7279990059989,309.7479557509772L889.2999989645822,309.8378966838398L924.8719989231655,309.96780091671974" fill="none"></path></g><g><path style="fill: none;" stroke="rgb(204, 51, 17)" stroke-width="2px" d="M71.14399991716657,-93.51239562605585L106.71599987574986,115.57159373475699L142.28799983433314,187.25832549365782L177.85999979291643,241.7632830587431L213.43199975149972,255.71621067374454L249.003999710083,272.2488868439841L284.57599966866627,257.968683309664L320.1479996272496,264.49920370461814L355.71999958583285,278.1673575452606L391.29199954441617,286.29401214290795L426.86399950299943,277.95639833681605L462.43599946158275,285.9677705678251L498.007999420166,291.5399710283629L533.5799993787493,290.45202895494924L569.1519993373325,288.1334053035892L604.7239992959159,289.0165002026787L640.2959992544992,289.86823566516625L675.8679992130825,289.407106198613L711.4399991716657,289.53733954102256L747.011999130249,288.9072828545136L782.5839990888323,288.9694845555994L818.1559990474155,289.1288675991981L853.7279990059989,289.1416088395565L889.2999989645822,289.10992029342515L924.8719989231655,289.38782978331056" fill="none"></path></g><g><path style="fill: none;" stroke="rgb(255, 112, 67)" stroke-width="2px" d="M71.14399991716657,-71.32796852042034L106.71599987574986,98.79565860652943L142.28799983433314,198.61787001576818L177.85999979291643,234.28680784455463L213.43199975149972,254.15820616083255L249.003999710083,274.60737976406733L284.57599966866627,267.63011669056624L320.1479996272496,283.9368826765901L355.71999958583285,293.542367437468L391.29199954441617,276.9475365817896L426.86399950299943,289.5569920815017L462.43599946158275,291.85281314402823L498.007999420166,293.1327201044665L533.5799993787493,291.8012839948294L569.1519993373325,292.6138554233L604.7239992959159,292.87803634423824L640.2959992544992,291.72248577032457L675.8679992130825,291.60743848192163L711.4399991716657,291.18721262832736L747.011999130249,291.57485663849576L782.5839990888323,291.20084716598035L818.1559990474155,291.2244490208141L853.7279990059989,291.40860931042357L889.2999989645822,291.4609847412698L924.8719989231655,291.5230924110615" fill="none"></path></g><g><path style="fill: none;" stroke="rgb(238, 51, 119)" stroke-width="2px" d="M71.14399991716657,-20.779612735288847L106.71599987574986,115.08545194395762L142.28799983433314,223.3173051306137L177.85999979291643,226.870747736863L213.43199975149972,241.67484662658705L249.003999710083,264.0781785850235L284.57599966866627,255.55316040967372L320.1479996272496,270.25297859417606L355.71999958583285,270.5813358733775L391.29199954441617,276.5939319001066L426.86399950299943,277.6530063662137L462.43599946158275,281.4731217226964L498.007999420166,280.3182763834889L533.5799993787493,283.3365868946823L569.1519993373325,284.0675391598233L604.7239992959159,284.04304400769496L640.2959992544992,281.5775434748594L675.8679992130825,284.0174674956839L711.4399991716657,283.6232412949244L747.011999130249,283.6343840032822L782.5839990888323,284.3651482058349L818.1559990474155,284.6539183101956L853.7279990059989,284.65236679384196L889.2999989645822,284.45222118422566L924.8719989231655,284.3589421404204" fill="none"></path></g><g><path style="fill: none;" stroke="rgb(51, 187, 238)" stroke-width="2px" d="M71.14399991716657,-33.73651386691656L106.71599987574986,165.9830399555937L142.28799983433314,223.38077625417068L177.85999979291643,243.19359307418785L213.43199975149972,244.42798888825345L249.003999710083,270.9475407484777L284.57599966866627,274.9041895440786L320.1479996272496,293.4826575656773L355.71999958583285,288.8433885901329L391.29199954441617,298.74163978537325L426.86399950299943,294.71822877091984L462.43599946158275,298.09240071485596L498.007999420166,298.77074247091525L533.5799993787493,297.9460410054983L569.1519993373325,298.9683022199423L604.7239992959159,298.6723857372255L640.2959992544992,301.4833102291523L675.8679992130825,299.99037537179794L711.4399991716657,299.6584449034185L747.011999130249,299.89747245316937L782.5839990888323,300.3086242868774L818.1559990474155,300.30843622428904L853.7279990059989,300.1287424211522L889.2999989645822,300.39391067067913L924.8719989231655,300.36259824972433" fill="none"></path></g><g><path style="fill: none;" stroke="rgb(0, 153, 136)" stroke-width="2px" d="M71.14399991716657,18.955285268557706L106.71599987574986,160.24036075874648L142.28799983433314,215.77251618121906L177.85999979291643,259.1282772292265L213.43199975149972,240.00804790633367L249.003999710083,263.7982474223137L284.57599966866627,275.7752954531628L320.1479996272496,277.7607662293193L355.71999958583285,277.75409000743406L391.29199954441617,273.6916089902578L426.86399950299943,279.6251246985997L462.43599946158275,285.713792042303L498.007999420166,284.62020809123976L533.5799993787493,287.3786161053791L569.1519993373325,286.31516918409363L604.7239992959159,288.4568729554944L640.2959992544992,290.8581971300668L675.8679992130825,290.03594047829796L711.4399991716657,289.5835089064543L747.011999130249,289.11640845272206L782.5839990888323,289.60363160340427L818.1559990474155,289.3034837124504L853.7279990059989,289.43381108615404L889.2999989645822,289.42469005062065L924.8719989231655,289.4429321216874" fill="none"></path></g></g></g></g></g></g><g transform="translate(49, 378)" clip-path="url(#clip_1)"><clipPath id="clip_1"><rect width="996" height="21"></rect></clipPath><g><g><line x1="0" y1="0" x2="0" y2="5" style="visibility: inherit;" fill="rgb(0, 0, 0)" stroke="rgb(204, 204, 204)" stroke-width="1px"></line><line x1="71.14399991716657" y1="0" x2="71.14399991716657" y2="5" style="visibility: inherit;" fill="rgb(0, 0, 0)" stroke="rgb(204, 204, 204)" stroke-width="1px"></line><line x1="142.28799983433314" y1="0" x2="142.28799983433314" y2="5" style="visibility: inherit;" fill="rgb(0, 0, 0)" stroke="rgb(204, 204, 204)" stroke-width="1px"></line><line x1="213.43199975149972" y1="0" x2="213.43199975149972" y2="5" style="visibility: inherit;" fill="rgb(0, 0, 0)" stroke="rgb(204, 204, 204)" stroke-width="1px"></line><line x1="284.57599966866627" y1="0" x2="284.57599966866627" y2="5" style="visibility: inherit;" fill="rgb(0, 0, 0)" stroke="rgb(204, 204, 204)" stroke-width="1px"></line><line x1="355.71999958583285" y1="0" x2="355.71999958583285" y2="5" style="visibility: inherit;" fill="rgb(0, 0, 0)" stroke="rgb(204, 204, 204)" stroke-width="1px"></line><line x1="426.86399950299943" y1="0" x2="426.86399950299943" y2="5" style="visibility: inherit;" fill="rgb(0, 0, 0)" stroke="rgb(204, 204, 204)" stroke-width="1px"></line><line x1="498.007999420166" y1="0" x2="498.007999420166" y2="5" style="visibility: inherit;" fill="rgb(0, 0, 0)" stroke="rgb(204, 204, 204)" stroke-width="1px"></line><line x1="569.1519993373325" y1="0" x2="569.1519993373325" y2="5" style="visibility: inherit;" fill="rgb(0, 0, 0)" stroke="rgb(204, 204, 204)" stroke-width="1px"></line><line x1="640.2959992544992" y1="0" x2="640.2959992544992" y2="5" style="visibility: inherit;" fill="rgb(0, 0, 0)" stroke="rgb(204, 204, 204)" stroke-width="1px"></line><line x1="711.4399991716657" y1="0" x2="711.4399991716657" y2="5" style="visibility: inherit;" fill="rgb(0, 0, 0)" stroke="rgb(204, 204, 204)" stroke-width="1px"></line><line x1="782.5839990888323" y1="0" x2="782.5839990888323" y2="5" style="visibility: inherit;" fill="rgb(0, 0, 0)" stroke="rgb(204, 204, 204)" stroke-width="1px"></line><line x1="853.7279990059989" y1="0" x2="853.7279990059989" y2="5" style="visibility: inherit;" fill="rgb(0, 0, 0)" stroke="rgb(204, 204, 204)" stroke-width="1px"></line><line x1="924.8719989231655" y1="0" x2="924.8719989231655" y2="5" style="visibility: inherit;" fill="rgb(0, 0, 0)" stroke="rgb(204, 204, 204)" stroke-width="1px"></line><line x1="996.015998840332" y1="0" x2="996.015998840332" y2="5" style="visibility: inherit;" fill="rgb(0, 0, 0)" stroke="rgb(204, 204, 204)" stroke-width="1px"></line></g><g transform="translate(0, 8)"><text style="text-anchor: middle; visibility: hidden; font-family: Roboto, sans-serif; font-size: 12px; font-weight: 200;" x="0" y="0" dx="0em" dy="0.95em" fill="rgb(50, 49, 63)" stroke="none" stroke-width="1px">-2</text><text style="text-anchor: middle; visibility: hidden; font-family: Roboto, sans-serif; font-size: 12px; font-weight: 200;" x="71.14399991716657" y="0" dx="0em" dy="0.95em" fill="rgb(50, 49, 63)" stroke="none" stroke-width="1px">0</text><text style="text-anchor: middle; visibility: hidden; font-family: Roboto, sans-serif; font-size: 12px; font-weight: 200;" x="142.28799983433314" y="0" dx="0em" dy="0.95em" fill="rgb(50, 49, 63)" stroke="none" stroke-width="1px">2</text><text style="text-anchor: middle; visibility: hidden; font-family: Roboto, sans-serif; font-size: 12px; font-weight: 200;" x="213.43199975149972" y="0" dx="0em" dy="0.95em" fill="rgb(50, 49, 63)" stroke="none" stroke-width="1px">4</text><text style="text-anchor: middle; visibility: hidden; font-family: Roboto, sans-serif; font-size: 12px; font-weight: 200;" x="284.57599966866627" y="0" dx="0em" dy="0.95em" fill="rgb(50, 49, 63)" stroke="none" stroke-width="1px">6</text><text style="text-anchor: middle; visibility: hidden; font-family: Roboto, sans-serif; font-size: 12px; font-weight: 200;" x="355.71999958583285" y="0" dx="0em" dy="0.95em" fill="rgb(50, 49, 63)" stroke="none" stroke-width="1px">8</text><text style="text-anchor: middle; visibility: hidden; font-family: Roboto, sans-serif; font-size: 12px; font-weight: 200;" x="426.86399950299943" y="0" dx="0em" dy="0.95em" fill="rgb(50, 49, 63)" stroke="none" stroke-width="1px">10</text><text style="text-anchor: middle; visibility: hidden; font-family: Roboto, sans-serif; font-size: 12px; font-weight: 200;" x="498.007999420166" y="0" dx="0em" dy="0.95em" fill="rgb(50, 49, 63)" stroke="none" stroke-width="1px">12</text><text style="text-anchor: middle; visibility: hidden; font-family: Roboto, sans-serif; font-size: 12px; font-weight: 200;" x="569.1519993373325" y="0" dx="0em" dy="0.95em" fill="rgb(50, 49, 63)" stroke="none" stroke-width="1px">14</text><text style="text-anchor: middle; visibility: hidden; font-family: Roboto, sans-serif; font-size: 12px; font-weight: 200;" x="640.2959992544992" y="0" dx="0em" dy="0.95em" fill="rgb(50, 49, 63)" stroke="none" stroke-width="1px">16</text><text style="text-anchor: middle; visibility: hidden; font-family: Roboto, sans-serif; font-size: 12px; font-weight: 200;" x="711.4399991716657" y="0" dx="0em" dy="0.95em" fill="rgb(50, 49, 63)" stroke="none" stroke-width="1px">18</text><text style="text-anchor: middle; visibility: hidden; font-family: Roboto, sans-serif; font-size: 12px; font-weight: 200;" x="782.5839990888323" y="0" dx="0em" dy="0.95em" fill="rgb(50, 49, 63)" stroke="none" stroke-width="1px">20</text><text style="text-anchor: middle; visibility: hidden; font-family: Roboto, sans-serif; font-size: 12px; font-weight: 200;" x="853.7279990059989" y="0" dx="0em" dy="0.95em" fill="rgb(50, 49, 63)" stroke="none" stroke-width="1px">22</text><text style="text-anchor: middle; visibility: hidden; font-family: Roboto, sans-serif; font-size: 12px; font-weight: 200;" x="924.8719989231655" y="0" dx="0em" dy="0.95em" fill="rgb(50, 49, 63)" stroke="none" stroke-width="1px">24</text><text style="text-anchor: middle; visibility: hidden; font-family: Roboto, sans-serif; font-size: 12px; font-weight: 200;" x="996.015998840332" y="0" dx="0em" dy="0.95em" fill="rgb(50, 49, 63)" stroke="none" stroke-width="1px">26</text></g><line x1="0" y1="0" x2="996.015998840332" y2="0" fill="rgb(0, 0, 0)" stroke="rgb(204, 204, 204)" stroke-width="1px"></line></g></g></g></g></svg>